<svg width="1584" height="396" viewBox="0 0 1584 396" fill="none" xmlns="http://www.w3.org/2000/svg">
<rect width="1584" height="396" fill="#F5F5F5"/>
<g id="Awesome banner" clip-path="url(#clip0_0_1)">
<rect width="1584" height="396" fill="url(#paint0_linear_0_1)"/>
<ellipse id="Ellipse 2" cx="323" cy="64" rx="285" ry="288" fill="url(#paint1_linear_0_1)" fill-opacity="0.1"/>
<g id="copyright">
<path d="M75.95 334.52L72.30 334.52L72.30 311.16L77.20 311.16L83.70 330.04Q83.60 329.02 83.50 327.62Q83.41 326.23 83.33 324.79Q83.25 323.35 83.25 322.23L83.25 311.16L86.90 311.16L86.90 334.52L82 334.52L75.57 315.64Q75.63 316.57 75.73 317.88Q75.82 319.19 75.89 320.57Q75.95 321.94 75.95 323.10L75.95 334.52M98.80 334.84Q96.46 334.84 94.67 333.96Q92.88 333.08 91.89 331.53Q90.90 329.98 90.90 327.93Q90.90 325.78 92.13 324.18Q93.36 322.58 95.34 322.17L95.34 322.10Q93.65 321.75 92.61 320.38Q91.57 319 91.57 317.11Q91.57 315.26 92.48 313.85Q93.39 312.44 95.02 311.64Q96.66 310.84 98.80 310.84Q100.94 310.84 102.59 311.64Q104.24 312.44 105.15 313.85Q106.06 315.26 106.06 317.11Q106.06 319 105.01 320.38Q103.95 321.75 102.26 322.10L102.26 322.17Q104.24 322.58 105.47 324.18Q106.70 325.78 106.70 327.93Q106.70 329.98 105.71 331.53Q104.72 333.08 102.93 333.96Q101.14 334.84 98.80 334.84M98.80 320.73Q100.30 320.73 101.23 319.82Q102.16 318.90 102.16 317.46Q102.16 315.99 101.23 315.08Q100.30 314.17 98.80 314.17Q97.30 314.17 96.37 315.08Q95.44 315.99 95.44 317.46Q95.44 318.90 96.37 319.82Q97.30 320.73 98.80 320.73M98.80 331.45Q100.56 331.45 101.68 330.42Q102.80 329.40 102.80 327.74Q102.80 326.04 101.68 325Q100.56 323.96 98.80 323.96Q97.04 323.96 95.92 325Q94.80 326.04 94.80 327.74Q94.80 329.40 95.92 330.42Q97.04 331.45 98.80 331.45M114.35 334.52L110.70 334.52L110.70 311.16L115.60 311.16L122.10 330.04Q122 329.02 121.90 327.62Q121.81 326.23 121.73 324.79Q121.65 323.35 121.65 322.23L121.65 311.16L125.30 311.16L125.30 334.52L120.40 334.52L113.97 315.64Q114.03 316.57 114.13 317.88Q114.22 319.19 114.29 320.57Q114.35 321.94 114.35 323.10" fill="white" fill-opacity="0.9"/>
<path d="M161.48 325.24L151.24 325.24L151.24 322.68L161.48 322.68" fill="white" fill-opacity="0.9"/>
<path d="M195.02 334.84Q191.82 334.84 189.96 333.05Q188.11 331.26 188.11 328.12L188.11 317.56Q188.11 314.42 189.96 312.63Q191.82 310.84 195.02 310.84Q198.15 310.84 200.01 312.65Q201.87 314.46 201.87 317.56L198.99 317.56Q198.99 315.58 197.95 314.50Q196.91 313.43 195.02 313.43Q193.13 313.43 192.06 314.50Q190.99 315.58 190.99 317.56L190.99 328.12Q190.99 330.10 192.06 331.18Q193.13 332.25 195.02 332.25Q196.91 332.25 197.95 331.18Q198.99 330.10 198.99 328.12L201.87 328.12Q201.87 331.22 200.01 333.03Q198.15 334.84 195.02 334.84" fill="white" fill-opacity="0.9"/>
<path d="M213.96 334.84Q210.83 334.84 209 333.02Q207.18 331.19 207.18 327.80L207.18 317.88Q207.18 314.49 209 312.66Q210.83 310.84 213.96 310.84Q217.10 310.84 218.92 312.66Q220.75 314.49 220.75 317.85L220.75 327.80Q220.75 331.19 218.92 333.02Q217.10 334.84 213.96 334.84M213.96 332.25Q215.85 332.25 216.86 331.18Q217.87 330.10 217.87 328.12L217.87 317.56Q217.87 315.58 216.86 314.50Q215.85 313.43 213.96 313.43Q212.11 313.43 211.08 314.50Q210.06 315.58 210.06 317.56L210.06 328.12Q210.06 330.10 211.08 331.18Q212.11 332.25 213.96 332.25" fill="white" fill-opacity="0.9"/>
<path d="M228.65 334.52L225.87 334.52L225.87 311.16L230.12 311.16L233.10 321.27L236.20 311.16L240.46 311.16L240.46 334.52L237.67 334.52L237.67 323.48Q237.67 321.91 237.72 319.88Q237.77 317.85 237.87 315.77Q237.96 313.69 238.09 312.02L234.31 324.09L231.82 324.09L228.20 312.31Q228.46 314.68 228.55 317.50Q228.65 320.31 228.65 323.48" fill="white" fill-opacity="0.9"/>
<path d="M247.85 334.52L245.07 334.52L245.07 311.16L249.32 311.16L252.30 321.27L255.40 311.16L259.66 311.16L259.66 334.52L256.87 334.52L256.87 323.48Q256.87 321.91 256.92 319.88Q256.97 317.85 257.07 315.77Q257.16 313.69 257.29 312.02L253.51 324.09L251.02 324.09L247.40 312.31Q247.66 314.68 247.75 317.50Q247.85 320.31 247.85 323.48" fill="white" fill-opacity="0.9"/>
<path d="M271.56 334.84Q268.30 334.84 266.57 333.03Q264.84 331.22 264.84 328.12L264.84 311.16L267.72 311.16L267.72 328.12Q267.72 330.04 268.67 331.16Q269.61 332.28 271.56 332.28Q273.48 332.28 274.44 331.16Q275.40 330.04 275.40 328.12L275.40 311.16L278.28 311.16L278.28 328.12Q278.28 331.26 276.57 333.05Q274.86 334.84 271.56 334.84" fill="white" fill-opacity="0.9"/>
<path d="M286.83 334.52L284.04 334.52L284.04 311.16L287.88 311.16L295.02 331.16Q294.95 330.36 294.87 329.19Q294.79 328.02 294.75 326.73Q294.70 325.43 294.70 324.28L294.70 311.16L297.48 311.16L297.48 334.52L293.64 334.52L286.54 314.52Q286.60 315.29 286.67 316.46Q286.73 317.62 286.78 318.92Q286.83 320.22 286.83 321.40" fill="white" fill-opacity="0.9"/>
<path d="M316.20 334.52L303.72 334.52L303.72 331.90L308.49 331.90L308.49 313.78L303.72 313.78L303.72 311.16L316.20 311.16L316.20 313.78L311.43 313.78L311.43 331.90L316.20 331.90" fill="white" fill-opacity="0.9"/>
<path d="M330.60 334.52L327.72 334.52L327.72 313.78L321.32 313.78L321.32 311.16L337 311.16L337 313.78L330.60 313.78" fill="white" fill-opacity="0.9"/>
<path d="M349.80 334.52L346.92 334.52L346.92 325.78L339.88 311.16L342.95 311.16L347.50 320.76Q347.88 321.56 348.11 322.12Q348.33 322.68 348.39 322.94Q348.46 322.68 348.70 322.12Q348.94 321.56 349.32 320.76L353.87 311.16L356.84 311.16L349.80 325.78" fill="white" fill-opacity="0.9"/>
<path d="M382.83 334.52L380.04 334.52L380.04 311.16L383.88 311.16L391.02 331.16Q390.95 330.36 390.87 329.19Q390.79 328.02 390.75 326.73Q390.70 325.43 390.70 324.28L390.70 311.16L393.48 311.16L393.48 334.52L389.64 334.52L382.54 314.52Q382.60 315.29 382.67 316.46Q382.73 317.62 382.78 318.92Q382.83 320.22 382.83 321.40" fill="white" fill-opacity="0.9"/>
<path d="M405.96 334.84Q402.83 334.84 401 333.02Q399.18 331.19 399.18 327.80L399.18 317.88Q399.18 314.49 401 312.66Q402.83 310.84 405.96 310.84Q409.10 310.84 410.92 312.66Q412.75 314.49 412.75 317.85L412.75 327.80Q412.75 331.19 410.92 333.02Q409.10 334.84 405.96 334.84M405.96 332.25Q407.85 332.25 408.86 331.18Q409.87 330.10 409.87 328.12L409.87 317.56Q409.87 315.58 408.86 314.50Q407.85 313.43 405.96 313.43Q404.11 313.43 403.08 314.50Q402.06 315.58 402.06 317.56L402.06 328.12Q402.06 330.10 403.08 331.18Q404.11 332.25 405.96 332.25" fill="white" fill-opacity="0.9"/>
<path d="M424.55 334.52L418.51 334.52L418.51 311.16L424.55 311.16Q426.83 311.16 428.47 312.02Q430.12 312.89 431.03 314.46Q431.95 316.02 431.95 318.17L431.95 327.48Q431.95 329.62 431.03 331.21Q430.12 332.79 428.47 333.66Q426.83 334.52 424.55 334.52M421.39 313.72L421.39 331.96L424.55 331.96Q426.67 331.96 427.87 330.78Q429.07 329.59 429.07 327.48L429.07 318.17Q429.07 316.09 427.87 314.90Q426.67 313.72 424.55 313.72" fill="white" fill-opacity="0.9"/>
<path d="M451.40 334.52L437.96 334.52L437.96 311.16L451.40 311.16L451.40 313.78L440.81 313.78L440.81 321.02L450.28 321.02L450.28 323.58L440.81 323.58L440.81 331.90L451.40 331.90" fill="white" fill-opacity="0.9"/>
<path d="M463.69 334.84Q460.30 334.84 458.28 333.05Q456.27 331.26 456.27 328.12L459.15 328.12Q459.15 330.07 460.39 331.18Q461.64 332.28 463.69 332.28Q465.67 332.28 466.86 331.13Q468.04 329.98 468.04 328.12Q468.04 326.71 467.29 325.67Q466.54 324.63 465.13 324.25L461.58 323.26Q459.37 322.62 458.11 320.97Q456.84 319.32 456.84 317.08Q456.84 315.22 457.67 313.82Q458.51 312.41 460.01 311.62Q461.51 310.84 463.47 310.84Q465.45 310.84 466.97 311.62Q468.49 312.41 469.35 313.80Q470.22 315.19 470.22 317.02L467.34 317.02Q467.34 315.42 466.25 314.41Q465.16 313.40 463.47 313.40Q461.77 313.40 460.71 314.41Q459.66 315.42 459.66 317.02Q459.66 318.30 460.35 319.21Q461.03 320.12 462.28 320.47L465.93 321.50Q468.27 322.14 469.56 323.91Q470.86 325.69 470.86 328.12Q470.86 331.19 468.91 333.02Q466.95 334.84 463.69 334.84" fill="white" fill-opacity="0.9"/>
</g>
<path d="M76.48 197.88Q73.96 197.88 72.52 196.46Q71.08 195.05 71.08 192.60L73.24 192.60Q73.24 194.21 74.09 195.08Q74.94 195.96 76.48 195.96Q78.02 195.96 78.87 195.08Q79.72 194.21 79.72 192.60L79.72 180.12L81.88 180.12L81.88 192.60Q81.88 195.05 80.43 196.46Q78.98 197.88 76.48 197.88" fill="white" fill-opacity="0.7"/>
<path d="M91.60 197.88Q89.15 197.88 87.86 196.52Q86.56 195.17 86.56 192.84L86.56 180.12L88.72 180.12L88.72 192.84Q88.72 194.28 89.43 195.12Q90.14 195.96 91.60 195.96Q93.04 195.96 93.76 195.12Q94.48 194.28 94.48 192.84L94.48 180.12L96.64 180.12L96.64 192.84Q96.64 195.19 95.36 196.54Q94.07 197.88 91.60 197.88" fill="white" fill-opacity="0.7"/>
<path d="M110.68 197.64L101.32 197.64L101.32 195.67L104.90 195.67L104.90 182.09L101.32 182.09L101.32 180.12L110.68 180.12L110.68 182.09L107.10 182.09L107.10 195.67L110.68 195.67" fill="white" fill-opacity="0.7"/>
<path d="M121.48 197.64L119.32 197.64L119.32 182.09L114.52 182.09L114.52 180.12L126.28 180.12L126.28 182.09L121.48 182.09" fill="white" fill-opacity="0.7"/>
<path d="M147.28 197.64L144.57 197.64L142.48 180.12L144.47 180.12L145.84 193.08Q145.94 193.87 145.98 194.72Q146.03 195.58 146.06 196.08Q146.10 195.58 146.19 194.72Q146.27 193.87 146.37 193.08L148.10 180.12L150.42 180.12L152.01 193.08Q152.10 193.87 152.20 194.72Q152.30 195.58 152.34 196.08Q152.39 195.58 152.45 194.72Q152.51 193.87 152.61 193.08L154.02 180.12L155.92 180.12L153.78 197.64L151.07 197.64L149.49 184.44Q149.39 183.62 149.34 182.84Q149.30 182.06 149.25 181.63Q149.20 182.06 149.15 182.84Q149.10 183.62 148.98 184.44" fill="white" fill-opacity="0.7"/>
<path d="M162.45 197.88Q160.41 197.88 159.21 196.74Q158.01 195.60 158.01 193.75Q158.01 192.53 158.56 191.62Q159.11 190.70 160.10 190.19Q161.08 189.67 162.35 189.67L166.43 189.67L166.43 188.64Q166.43 186.07 163.62 186.07Q162.38 186.07 161.61 186.53Q160.84 186.98 160.79 187.80L158.63 187.80Q158.75 186.24 160.08 185.22Q161.42 184.20 163.62 184.20Q166.02 184.20 167.31 185.35Q168.59 186.50 168.59 188.57L168.59 197.64L166.46 197.64L166.46 195.24L166.41 195.24Q166.22 196.46 165.18 197.17Q164.15 197.88 162.45 197.88M162.98 196.06Q164.56 196.06 165.50 195.29Q166.43 194.52 166.43 193.20L166.43 191.35L162.59 191.35Q161.54 191.35 160.88 191.99Q160.22 192.62 160.22 193.68Q160.22 194.78 160.95 195.42Q161.68 196.06 162.98 196.06" fill="white" fill-opacity="0.7"/>
<path d="M175.29 197.64L173.13 197.64L173.13 180.12L175.29 180.12L175.29 189.89L177.81 189.89L181.50 184.44L183.98 184.44L179.73 190.73L184.22 197.64L181.70 197.64L177.86 191.76L175.29 191.76" fill="white" fill-opacity="0.7"/>
<path d="M189.57 197.64L187.41 197.64L187.41 184.44L189.57 184.44L189.57 186.96L189.59 186.96Q189.76 185.64 190.67 184.92Q191.58 184.20 193.10 184.20Q195.09 184.20 196.26 185.42Q197.44 186.65 197.44 188.76L197.44 197.64L195.28 197.64L195.28 189.14Q195.28 187.63 194.52 186.83Q193.77 186.02 192.47 186.02Q191.13 186.02 190.35 186.86Q189.57 187.70 189.57 189.24" fill="white" fill-opacity="0.7"/>
<path d="M205.65 197.88Q203.61 197.88 202.41 196.74Q201.21 195.60 201.21 193.75Q201.21 192.53 201.76 191.62Q202.31 190.70 203.30 190.19Q204.28 189.67 205.55 189.67L209.63 189.67L209.63 188.64Q209.63 186.07 206.82 186.07Q205.58 186.07 204.81 186.53Q204.04 186.98 203.99 187.80L201.83 187.80Q201.95 186.24 203.28 185.22Q204.62 184.20 206.82 184.20Q209.22 184.20 210.51 185.35Q211.79 186.50 211.79 188.57L211.79 197.64L209.66 197.64L209.66 195.24L209.61 195.24Q209.42 196.46 208.38 197.17Q207.35 197.88 205.65 197.88M206.18 196.06Q207.76 196.06 208.70 195.29Q209.63 194.52 209.63 193.20L209.63 191.35L205.79 191.35Q204.74 191.35 204.08 191.99Q203.42 192.62 203.42 193.68Q203.42 194.78 204.15 195.42Q204.88 196.06 206.18 196.06" fill="white" fill-opacity="0.7"/>
<path d="M221.56 201.96L217.86 201.96L217.86 199.99L221.58 199.99Q222.71 199.99 223.36 199.36Q224.01 198.72 224.01 197.64L224.01 196.44L224.06 194.28L223.98 194.28Q223.79 195.46 222.86 196.09Q221.92 196.73 220.50 196.73Q218.46 196.73 217.29 195.43Q216.11 194.14 216.11 191.88L216.11 189.10Q216.11 186.84 217.29 185.52Q218.46 184.20 220.50 184.20Q221.92 184.20 222.86 184.87Q223.79 185.54 223.98 186.72L224.03 186.72L224.03 184.44L226.17 184.44L226.17 197.64Q226.17 199.63 224.93 200.80Q223.70 201.96 221.56 201.96M221.15 194.93Q222.50 194.93 223.26 194.09Q224.03 193.25 224.03 191.76L224.03 189.24Q224.03 187.75 223.26 186.91Q222.50 186.07 221.15 186.07Q219.78 186.07 219.03 186.86Q218.27 187.66 218.27 189L218.27 192Q218.27 193.34 219.03 194.14Q219.78 194.93 221.15 194.93" fill="white" fill-opacity="0.7"/>
<path d="M232.77 197.64L230.61 197.64L230.61 180.12L232.77 180.12L232.77 186.96L232.79 186.96Q232.96 185.64 233.87 184.92Q234.78 184.20 236.30 184.20Q238.29 184.20 239.46 185.42Q240.64 186.65 240.64 188.76L240.64 197.64L238.48 197.64L238.48 189.12Q238.48 187.63 237.72 186.83Q236.97 186.02 235.67 186.02Q234.33 186.02 233.55 186.86Q232.77 187.70 232.77 189.24" fill="white" fill-opacity="0.7"/>
<path d="M248.85 197.88Q246.81 197.88 245.61 196.74Q244.41 195.60 244.41 193.75Q244.41 192.53 244.96 191.62Q245.51 190.70 246.50 190.19Q247.48 189.67 248.75 189.67L252.83 189.67L252.83 188.64Q252.83 186.07 250.02 186.07Q248.78 186.07 248.01 186.53Q247.24 186.98 247.19 187.80L245.03 187.80Q245.15 186.24 246.48 185.22Q247.82 184.20 250.02 184.20Q252.42 184.20 253.71 185.35Q254.99 186.50 254.99 188.57L254.99 197.64L252.86 197.64L252.86 195.24L252.81 195.24Q252.62 196.46 251.58 197.17Q250.55 197.88 248.85 197.88M249.38 196.06Q250.96 196.06 251.90 195.29Q252.83 194.52 252.83 193.20L252.83 191.35L248.99 191.35Q247.94 191.35 247.28 191.99Q246.62 192.62 246.62 193.68Q246.62 194.78 247.35 195.42Q248.08 196.06 249.38 196.06" fill="white" fill-opacity="0.7"/>
<path d="M269.56 197.64L265.72 197.64Q264.09 197.64 263.10 196.69Q262.12 195.74 262.12 194.16L262.12 186.41L258.33 186.41L258.33 184.44L262.12 184.44L262.12 180.72L264.28 180.72L264.28 184.44L269.68 184.44L269.68 186.41L264.28 186.41L264.28 194.16Q264.28 194.83 264.68 195.25Q265.07 195.67 265.72 195.67L269.56 195.67" fill="white" fill-opacity="0.7"/>
<path d="M299.32 197.64L288.04 197.64L288.04 195.67L292.72 195.67L292.72 186.41L288.52 186.41L288.52 184.44L294.88 184.44L294.88 195.67L299.32 195.67L299.32 197.64M293.56 182.06Q292.77 182.06 292.31 181.66Q291.86 181.25 291.86 180.55Q291.86 179.83 292.31 179.41Q292.77 178.99 293.56 178.99Q294.35 178.99 294.81 179.41Q295.26 179.83 295.26 180.55Q295.26 181.25 294.81 181.66Q294.35 182.06 293.56 182.06" fill="white" fill-opacity="0.7"/>
<path d="M308.13 197.83L307.07 197.83Q304.86 197.83 303.65 196.84Q302.44 195.84 302.44 194.02L304.60 194.02Q304.60 194.93 305.25 195.44Q305.90 195.96 307.07 195.96L308.13 195.96Q309.33 195.96 309.99 195.43Q310.65 194.90 310.65 193.94Q310.65 192.24 309.09 192.02L305.44 191.50Q304.10 191.30 303.35 190.38Q302.61 189.46 302.61 187.94Q302.61 186.22 303.80 185.23Q304.98 184.25 307.07 184.25L308.13 184.25Q310.05 184.25 311.26 185.20Q312.47 186.14 312.57 187.68L310.38 187.68Q310.34 186.98 309.72 186.53Q309.11 186.07 308.13 186.07L307.07 186.07Q305.97 186.07 305.34 186.58Q304.72 187.08 304.72 187.94Q304.72 189.34 305.99 189.53L309.40 190.01Q312.76 190.49 312.76 193.94Q312.76 195.79 311.55 196.81Q310.34 197.83 308.13 197.83" fill="white" fill-opacity="0.7"/>
<path d="M322.53 197.83L321.47 197.83Q319.26 197.83 318.05 196.84Q316.84 195.84 316.84 194.02L319 194.02Q319 194.93 319.65 195.44Q320.30 195.96 321.47 195.96L322.53 195.96Q323.73 195.96 324.39 195.43Q325.05 194.90 325.05 193.94Q325.05 192.24 323.49 192.02L319.84 191.50Q318.50 191.30 317.75 190.38Q317.01 189.46 317.01 187.94Q317.01 186.22 318.20 185.23Q319.38 184.25 321.47 184.25L322.53 184.25Q324.45 184.25 325.66 185.20Q326.87 186.14 326.97 187.68L324.78 187.68Q324.74 186.98 324.12 186.53Q323.51 186.07 322.53 186.07L321.47 186.07Q320.37 186.07 319.74 186.58Q319.12 187.08 319.12 187.94Q319.12 189.34 320.39 189.53L323.80 190.01Q327.16 190.49 327.16 193.94Q327.16 195.79 325.95 196.81Q324.74 197.83 322.53 197.83" fill="white" fill-opacity="0.7"/>
<path d="M336.38 197.88Q334.10 197.88 332.73 196.52Q331.36 195.17 331.36 192.84L331.36 184.44L333.52 184.44L333.52 192.84Q333.52 194.28 334.29 195.13Q335.06 195.98 336.38 195.98Q337.72 195.98 338.50 195.13Q339.28 194.28 339.28 192.84L339.28 184.44L341.44 184.44L341.44 192.84Q341.44 195.17 340.05 196.52Q338.66 197.88 336.38 197.88" fill="white" fill-opacity="0.7"/>
<path d="M350.80 197.88Q348.47 197.88 347.04 196.48Q345.62 195.07 345.62 192.60L345.62 189.48Q345.62 187.01 347.04 185.60Q348.47 184.20 350.80 184.20Q352.36 184.20 353.52 184.82Q354.69 185.45 355.34 186.58Q355.98 187.70 355.98 189.24L355.98 191.59L347.73 191.59L347.73 192.84Q347.73 194.30 348.57 195.16Q349.41 196.01 350.80 196.01Q352 196.01 352.78 195.54Q353.56 195.07 353.73 194.28L355.89 194.28Q355.67 195.94 354.28 196.91Q352.89 197.88 350.80 197.88M347.73 189.24L347.73 189.91L353.87 189.91L353.87 189.24Q353.87 187.68 353.07 186.83Q352.26 185.98 350.80 185.98Q349.34 185.98 348.53 186.83Q347.73 187.68 347.73 189.24" fill="white" fill-opacity="0.7"/>
<path d="M365.73 197.83L364.67 197.83Q362.46 197.83 361.25 196.84Q360.04 195.84 360.04 194.02L362.20 194.02Q362.20 194.93 362.85 195.44Q363.50 195.96 364.67 195.96L365.73 195.96Q366.93 195.96 367.59 195.43Q368.25 194.90 368.25 193.94Q368.25 192.24 366.69 192.02L363.04 191.50Q361.70 191.30 360.95 190.38Q360.21 189.46 360.21 187.94Q360.21 186.22 361.40 185.23Q362.58 184.25 364.67 184.25L365.73 184.25Q367.65 184.25 368.86 185.20Q370.07 186.14 370.17 187.68L367.98 187.68Q367.94 186.98 367.32 186.53Q366.71 186.07 365.73 186.07L364.67 186.07Q363.57 186.07 362.94 186.58Q362.32 187.08 362.32 187.94Q362.32 189.34 363.59 189.53L367 190.01Q370.36 190.49 370.36 193.94Q370.36 195.79 369.15 196.81Q367.94 197.83 365.73 197.83" fill="white" fill-opacity="0.7"/>
<path d="M393.54 197.64L389.01 197.64L389.01 180.12L393.54 180.12Q395.25 180.12 396.48 180.77Q397.72 181.42 398.40 182.59Q399.09 183.77 399.09 185.38L399.09 192.36Q399.09 193.97 398.40 195.16Q397.72 196.34 396.48 196.99Q395.25 197.64 393.54 197.64M391.17 182.04L391.17 195.72L393.54 195.72Q395.13 195.72 396.03 194.83Q396.93 193.94 396.93 192.36L396.93 185.38Q396.93 183.82 396.03 182.93Q395.13 182.04 393.54 182.04" fill="white" fill-opacity="0.7"/>
<path d="M414.52 197.64L403.24 197.64L403.24 195.67L407.92 195.67L407.92 186.41L403.72 186.41L403.72 184.44L410.08 184.44L410.08 195.67L414.52 195.67L414.52 197.64M408.76 182.06Q407.97 182.06 407.51 181.66Q407.06 181.25 407.06 180.55Q407.06 179.83 407.51 179.41Q407.97 178.99 408.76 178.99Q409.55 178.99 410.01 179.41Q410.46 179.83 410.46 180.55Q410.46 181.25 410.01 181.66Q409.55 182.06 408.76 182.06" fill="white" fill-opacity="0.7"/>
<path d="M423.16 201.96L419.46 201.96L419.46 199.99L423.18 199.99Q424.31 199.99 424.96 199.36Q425.61 198.72 425.61 197.64L425.61 196.44L425.66 194.28L425.58 194.28Q425.39 195.46 424.46 196.09Q423.52 196.73 422.10 196.73Q420.06 196.73 418.89 195.43Q417.71 194.14 417.71 191.88L417.71 189.10Q417.71 186.84 418.89 185.52Q420.06 184.20 422.10 184.20Q423.52 184.20 424.46 184.87Q425.39 185.54 425.58 186.72L425.63 186.72L425.63 184.44L427.77 184.44L427.77 197.64Q427.77 199.63 426.53 200.80Q425.30 201.96 423.16 201.96M422.75 194.93Q424.10 194.93 424.86 194.09Q425.63 193.25 425.63 191.76L425.63 189.24Q425.63 187.75 424.86 186.91Q424.10 186.07 422.75 186.07Q421.38 186.07 420.63 186.86Q419.87 187.66 419.87 189L419.87 192Q419.87 193.34 420.63 194.14Q421.38 194.93 422.75 194.93" fill="white" fill-opacity="0.7"/>
<path d="M443.32 197.64L432.04 197.64L432.04 195.67L436.72 195.67L436.72 186.41L432.52 186.41L432.52 184.44L438.88 184.44L438.88 195.67L443.32 195.67L443.32 197.64M437.56 182.06Q436.77 182.06 436.31 181.66Q435.86 181.25 435.86 180.55Q435.86 179.83 436.31 179.41Q436.77 178.99 437.56 178.99Q438.35 178.99 438.81 179.41Q439.26 179.83 439.26 180.55Q439.26 181.25 438.81 181.66Q438.35 182.06 437.56 182.06" fill="white" fill-opacity="0.7"/>
<path d="M457.60 197.64L447.52 197.64L447.52 180.12L449.68 180.12L449.68 195.67L457.60 195.67" fill="white" fill-opacity="0.7"/>
<path d="M466 197.83Q463.62 197.83 462.22 196.44Q460.82 195.05 460.82 192.55L460.82 189.53Q460.82 187.01 462.21 185.63Q463.60 184.25 466 184.25Q468.40 184.25 469.79 185.63Q471.18 187.01 471.18 189.53L471.18 192.55Q471.18 195.05 469.78 196.44Q468.38 197.83 466 197.83M466 195.91Q467.42 195.91 468.22 195.12Q469.02 194.33 469.02 192.79L469.02 189.29Q469.02 187.75 468.22 186.96Q467.42 186.17 466 186.17Q464.61 186.17 463.79 186.96Q462.98 187.75 462.98 189.29L462.98 192.79Q462.98 194.33 463.79 195.12Q464.61 195.91 466 195.91" fill="white" fill-opacity="0.7"/>
<path d="M480.59 197.88Q478.19 197.88 476.75 196.54Q475.31 195.19 475.31 192.84L475.31 189.24Q475.31 186.89 476.75 185.54Q478.19 184.20 480.59 184.20Q482.87 184.20 484.28 185.42Q485.68 186.65 485.75 188.76L483.59 188.76Q483.52 187.49 482.73 186.80Q481.94 186.12 480.59 186.12Q479.18 186.12 478.32 186.92Q477.47 187.73 477.47 189.22L477.47 192.84Q477.47 194.33 478.32 195.14Q479.18 195.96 480.59 195.96Q481.94 195.96 482.73 195.26Q483.52 194.57 483.59 193.32L485.75 193.32Q485.68 195.43 484.28 196.66Q482.87 197.88 480.59 197.88" fill="white" fill-opacity="0.7"/>
<path d="M492.09 197.64L489.93 197.64L489.93 180.12L492.09 180.12L492.09 189.89L494.61 189.89L498.30 184.44L500.78 184.44L496.53 190.73L501.02 197.64L498.50 197.64L494.66 191.76L492.09 191.76" fill="white" fill-opacity="0.7"/>
<path d="M509.20 197.88Q506.87 197.88 505.44 196.48Q504.02 195.07 504.02 192.60L504.02 189.48Q504.02 187.01 505.44 185.60Q506.87 184.20 509.20 184.20Q510.76 184.20 511.92 184.82Q513.09 185.45 513.74 186.58Q514.38 187.70 514.38 189.24L514.38 191.59L506.13 191.59L506.13 192.84Q506.13 194.30 506.97 195.16Q507.81 196.01 509.20 196.01Q510.40 196.01 511.18 195.54Q511.96 195.07 512.13 194.28L514.29 194.28Q514.07 195.94 512.68 196.91Q511.29 197.88 509.20 197.88M506.13 189.24L506.13 189.91L512.27 189.91L512.27 189.24Q512.27 187.68 511.47 186.83Q510.66 185.98 509.20 185.98Q507.74 185.98 506.93 186.83Q506.13 187.68 506.13 189.24" fill="white" fill-opacity="0.7"/>
<path d="M521.25 197.64L519.09 197.64L519.09 184.44L521.25 184.44L521.25 186.96L521.30 186.96Q521.46 185.69 522.38 184.94Q523.29 184.20 524.82 184.20Q526.89 184.20 528 185.44Q529.12 186.67 529.12 188.95L529.12 190.08L526.96 190.08L526.96 188.95Q526.96 186.07 524.15 186.07Q522.74 186.07 521.99 186.89Q521.25 187.70 521.25 189.24" fill="white" fill-opacity="0.7"/>
<path d="M551.63 197.88Q549.66 197.88 548.48 196.56Q547.29 195.24 547.29 192.98L547.29 189.12Q547.29 186.84 548.46 185.52Q549.64 184.20 551.63 184.20Q553.12 184.20 554.09 184.94Q555.06 185.69 555.26 186.96L555.28 186.96L555.23 183.96L555.23 180.12L557.39 180.12L557.39 197.64L555.23 197.64L555.23 195.12L555.21 195.12Q555.04 196.42 554.08 197.15Q553.12 197.88 551.63 197.88M552.35 196.01Q553.70 196.01 554.46 195.17Q555.23 194.33 555.23 192.84L555.23 189.24Q555.23 187.75 554.46 186.91Q553.70 186.07 552.35 186.07Q550.98 186.07 550.22 186.78Q549.45 187.49 549.45 189.12L549.45 192.96Q549.45 194.57 550.22 195.29Q550.98 196.01 552.35 196.01" fill="white" fill-opacity="0.7"/>
<path d="M566.80 197.88Q564.47 197.88 563.04 196.48Q561.62 195.07 561.62 192.60L561.62 189.48Q561.62 187.01 563.04 185.60Q564.47 184.20 566.80 184.20Q568.36 184.20 569.52 184.82Q570.69 185.45 571.34 186.58Q571.98 187.70 571.98 189.24L571.98 191.59L563.73 191.59L563.73 192.84Q563.73 194.30 564.57 195.16Q565.41 196.01 566.80 196.01Q568 196.01 568.78 195.54Q569.56 195.07 569.73 194.28L571.89 194.28Q571.67 195.94 570.28 196.91Q568.89 197.88 566.80 197.88M563.73 189.24L563.73 189.91L569.87 189.91L569.87 189.24Q569.87 187.68 569.07 186.83Q568.26 185.98 566.80 185.98Q565.34 185.98 564.53 186.83Q563.73 187.68 563.73 189.24" fill="white" fill-opacity="0.7"/>
<path d="M581.56 201.96L577.86 201.96L577.86 199.99L581.58 199.99Q582.71 199.99 583.36 199.36Q584.01 198.72 584.01 197.64L584.01 196.44L584.06 194.28L583.98 194.28Q583.79 195.46 582.86 196.09Q581.92 196.73 580.50 196.73Q578.46 196.73 577.29 195.43Q576.11 194.14 576.11 191.88L576.11 189.10Q576.11 186.84 577.29 185.52Q578.46 184.20 580.50 184.20Q581.92 184.20 582.86 184.87Q583.79 185.54 583.98 186.72L584.03 186.72L584.03 184.44L586.17 184.44L586.17 197.64Q586.17 199.63 584.93 200.80Q583.70 201.96 581.56 201.96M581.15 194.93Q582.50 194.93 583.26 194.09Q584.03 193.25 584.03 191.76L584.03 189.24Q584.03 187.75 583.26 186.91Q582.50 186.07 581.15 186.07Q579.78 186.07 579.03 186.86Q578.27 187.66 578.27 189L578.27 192Q578.27 193.34 579.03 194.14Q579.78 194.93 581.15 194.93" fill="white" fill-opacity="0.7"/>
<path d="M593.25 197.64L591.09 197.64L591.09 184.44L593.25 184.44L593.25 186.96L593.30 186.96Q593.46 185.69 594.38 184.94Q595.29 184.20 596.82 184.20Q598.89 184.20 600 185.44Q601.12 186.67 601.12 188.95L601.12 190.08L598.96 190.08L598.96 188.95Q598.96 186.07 596.15 186.07Q594.74 186.07 593.99 186.89Q593.25 187.70 593.25 189.24" fill="white" fill-opacity="0.7"/>
<path d="M610 197.88Q607.67 197.88 606.24 196.48Q604.82 195.07 604.82 192.60L604.82 189.48Q604.82 187.01 606.24 185.60Q607.67 184.20 610 184.20Q611.56 184.20 612.72 184.82Q613.89 185.45 614.54 186.58Q615.18 187.70 615.18 189.24L615.18 191.59L606.93 191.59L606.93 192.84Q606.93 194.30 607.77 195.16Q608.61 196.01 610 196.01Q611.20 196.01 611.98 195.54Q612.76 195.07 612.93 194.28L615.09 194.28Q614.87 195.94 613.48 196.91Q612.09 197.88 610 197.88M606.93 189.24L606.93 189.91L613.07 189.91L613.07 189.24Q613.07 187.68 612.27 186.83Q611.46 185.98 610 185.98Q608.54 185.98 607.73 186.83Q606.93 187.68 606.93 189.24" fill="white" fill-opacity="0.7"/>
<path d="M624.40 197.88Q622.07 197.88 620.64 196.48Q619.22 195.07 619.22 192.60L619.22 189.48Q619.22 187.01 620.64 185.60Q622.07 184.20 624.40 184.20Q625.96 184.20 627.12 184.82Q628.29 185.45 628.94 186.58Q629.58 187.70 629.58 189.24L629.58 191.59L621.33 191.59L621.33 192.84Q621.33 194.30 622.17 195.16Q623.01 196.01 624.40 196.01Q625.60 196.01 626.38 195.54Q627.16 195.07 627.33 194.28L629.49 194.28Q629.27 195.94 627.88 196.91Q626.49 197.88 624.40 197.88M621.33 189.24L621.33 189.91L627.47 189.91L627.47 189.24Q627.47 187.68 626.67 186.83Q625.86 185.98 624.40 185.98Q622.94 185.98 622.13 186.83Q621.33 187.68 621.33 189.24" fill="white" fill-opacity="0.7"/>
<path d="M653.39 197.88Q650.99 197.88 649.55 196.54Q648.11 195.19 648.11 192.84L648.11 189.24Q648.11 186.89 649.55 185.54Q650.99 184.20 653.39 184.20Q655.67 184.20 657.08 185.42Q658.48 186.65 658.55 188.76L656.39 188.76Q656.32 187.49 655.53 186.80Q654.74 186.12 653.39 186.12Q651.98 186.12 651.12 186.92Q650.27 187.73 650.27 189.22L650.27 192.84Q650.27 194.33 651.12 195.14Q651.98 195.96 653.39 195.96Q654.74 195.96 655.53 195.26Q656.32 194.57 656.39 193.32L658.55 193.32Q658.48 195.43 657.08 196.66Q655.67 197.88 653.39 197.88" fill="white" fill-opacity="0.7"/>
<path d="M667.60 197.88Q665.27 197.88 663.84 196.48Q662.42 195.07 662.42 192.60L662.42 189.48Q662.42 187.01 663.84 185.60Q665.27 184.20 667.60 184.20Q669.16 184.20 670.32 184.82Q671.49 185.45 672.14 186.58Q672.78 187.70 672.78 189.24L672.78 191.59L664.53 191.59L664.53 192.84Q664.53 194.30 665.37 195.16Q666.21 196.01 667.60 196.01Q668.80 196.01 669.58 195.54Q670.36 195.07 670.53 194.28L672.69 194.28Q672.47 195.94 671.08 196.91Q669.69 197.88 667.60 197.88M664.53 189.24L664.53 189.91L670.67 189.91L670.67 189.24Q670.67 187.68 669.87 186.83Q669.06 185.98 667.60 185.98Q666.14 185.98 665.33 186.83Q664.53 187.68 664.53 189.24" fill="white" fill-opacity="0.7"/>
<path d="M679.65 197.64L677.49 197.64L677.49 184.44L679.65 184.44L679.65 186.96L679.70 186.96Q679.86 185.69 680.78 184.94Q681.69 184.20 683.22 184.20Q685.29 184.20 686.40 185.44Q687.52 186.67 687.52 188.95L687.52 190.08L685.36 190.08L685.36 188.95Q685.36 186.07 682.55 186.07Q681.14 186.07 680.39 186.89Q679.65 187.70 679.65 189.24" fill="white" fill-opacity="0.7"/>
<path d="M701.56 197.64L697.72 197.64Q696.09 197.64 695.10 196.69Q694.12 195.74 694.12 194.16L694.12 186.41L690.33 186.41L690.33 184.44L694.12 184.44L694.12 180.72L696.28 180.72L696.28 184.44L701.68 184.44L701.68 186.41L696.28 186.41L696.28 194.16Q696.28 194.83 696.68 195.25Q697.07 195.67 697.72 195.67L701.56 195.67" fill="white" fill-opacity="0.7"/>
<path d="M716.92 197.64L705.64 197.64L705.64 195.67L710.32 195.67L710.32 186.41L706.12 186.41L706.12 184.44L712.48 184.44L712.48 195.67L716.92 195.67L716.92 197.64M711.16 182.06Q710.37 182.06 709.91 181.66Q709.46 181.25 709.46 180.55Q709.46 179.83 709.91 179.41Q710.37 178.99 711.16 178.99Q711.95 178.99 712.41 179.41Q712.86 179.83 712.86 180.55Q712.86 181.25 712.41 181.66Q711.95 182.06 711.16 182.06" fill="white" fill-opacity="0.7"/>
<path d="M725.32 197.64L723.16 197.64L723.16 188.21L719.32 188.21L719.32 186.24L723.16 186.24L723.16 183.48Q723.16 181.92 724.14 181.02Q725.13 180.12 726.86 180.12L730.72 180.12L730.72 182.09L726.86 182.09Q725.32 182.09 725.32 183.48L725.32 186.24L730.72 186.24L730.72 188.21L725.32 188.21" fill="white" fill-opacity="0.7"/>
<path d="M745.72 197.64L734.44 197.64L734.44 195.67L739.12 195.67L739.12 186.41L734.92 186.41L734.92 184.44L741.28 184.44L741.28 195.67L745.72 195.67L745.72 197.64M739.96 182.06Q739.17 182.06 738.71 181.66Q738.26 181.25 738.26 180.55Q738.26 179.83 738.71 179.41Q739.17 178.99 739.96 178.99Q740.75 178.99 741.21 179.41Q741.66 179.83 741.66 180.55Q741.66 181.25 741.21 181.66Q740.75 182.06 739.96 182.06" fill="white" fill-opacity="0.7"/>
<path d="M754.19 197.88Q751.79 197.88 750.35 196.54Q748.91 195.19 748.91 192.84L748.91 189.24Q748.91 186.89 750.35 185.54Q751.79 184.20 754.19 184.20Q756.47 184.20 757.88 185.42Q759.28 186.65 759.35 188.76L757.19 188.76Q757.12 187.49 756.33 186.80Q755.54 186.12 754.19 186.12Q752.78 186.12 751.92 186.92Q751.07 187.73 751.07 189.22L751.07 192.84Q751.07 194.33 751.92 195.14Q752.78 195.96 754.19 195.96Q755.54 195.96 756.33 195.26Q757.12 194.57 757.19 193.32L759.35 193.32Q759.28 195.43 757.88 196.66Q756.47 197.88 754.19 197.88" fill="white" fill-opacity="0.7"/>
<path d="M767.25 197.88Q765.21 197.88 764.01 196.74Q762.81 195.60 762.81 193.75Q762.81 192.53 763.36 191.62Q763.91 190.70 764.90 190.19Q765.88 189.67 767.15 189.67L771.23 189.67L771.23 188.64Q771.23 186.07 768.42 186.07Q767.18 186.07 766.41 186.53Q765.64 186.98 765.59 187.80L763.43 187.80Q763.55 186.24 764.88 185.22Q766.22 184.20 768.42 184.20Q770.82 184.20 772.11 185.35Q773.39 186.50 773.39 188.57L773.39 197.64L771.26 197.64L771.26 195.24L771.21 195.24Q771.02 196.46 769.98 197.17Q768.95 197.88 767.25 197.88M767.78 196.06Q769.36 196.06 770.30 195.29Q771.23 194.52 771.23 193.20L771.23 191.35L767.39 191.35Q766.34 191.35 765.68 191.99Q765.02 192.62 765.02 193.68Q765.02 194.78 765.75 195.42Q766.48 196.06 767.78 196.06" fill="white" fill-opacity="0.7"/>
<path d="M787.96 197.64L784.12 197.64Q782.49 197.64 781.50 196.69Q780.52 195.74 780.52 194.16L780.52 186.41L776.73 186.41L776.73 184.44L780.52 184.44L780.52 180.72L782.68 180.72L782.68 184.44L788.08 184.44L788.08 186.41L782.68 186.41L782.68 194.16Q782.68 194.83 783.08 195.25Q783.47 195.67 784.12 195.67L787.96 195.67" fill="white" fill-opacity="0.7"/>
<path d="M797.20 197.88Q794.87 197.88 793.44 196.48Q792.02 195.07 792.02 192.60L792.02 189.48Q792.02 187.01 793.44 185.60Q794.87 184.20 797.20 184.20Q798.76 184.20 799.92 184.82Q801.09 185.45 801.74 186.58Q802.38 187.70 802.38 189.24L802.38 191.59L794.13 191.59L794.13 192.84Q794.13 194.30 794.97 195.16Q795.81 196.01 797.20 196.01Q798.40 196.01 799.18 195.54Q799.96 195.07 800.13 194.28L802.29 194.28Q802.07 195.94 800.68 196.91Q799.29 197.88 797.20 197.88M794.13 189.24L794.13 189.91L800.27 189.91L800.27 189.24Q800.27 187.68 799.47 186.83Q798.66 185.98 797.20 185.98Q795.74 185.98 794.93 186.83Q794.13 187.68 794.13 189.24" fill="white" fill-opacity="0.7"/>
<path d="M812.13 197.83L811.07 197.83Q808.86 197.83 807.65 196.84Q806.44 195.84 806.44 194.02L808.60 194.02Q808.60 194.93 809.25 195.44Q809.90 195.96 811.07 195.96L812.13 195.96Q813.33 195.96 813.99 195.43Q814.65 194.90 814.65 193.94Q814.65 192.24 813.09 192.02L809.44 191.50Q808.10 191.30 807.35 190.38Q806.61 189.46 806.61 187.94Q806.61 186.22 807.80 185.23Q808.98 184.25 811.07 184.25L812.13 184.25Q814.05 184.25 815.26 185.20Q816.47 186.14 816.57 187.68L814.38 187.68Q814.34 186.98 813.72 186.53Q813.11 186.07 812.13 186.07L811.07 186.07Q809.97 186.07 809.34 186.58Q808.72 187.08 808.72 187.94Q808.72 189.34 809.99 189.53L813.40 190.01Q816.76 190.49 816.76 193.94Q816.76 195.79 815.55 196.81Q814.34 197.83 812.13 197.83" fill="white" fill-opacity="0.7"/>
<path d="M840.52 197.64L838.36 197.64L838.36 188.21L834.52 188.21L834.52 186.24L838.36 186.24L838.36 183.48Q838.36 181.92 839.34 181.02Q840.33 180.12 842.06 180.12L845.92 180.12L845.92 182.09L842.06 182.09Q840.52 182.09 840.52 183.48L840.52 186.24L845.92 186.24L845.92 188.21L840.52 188.21" fill="white" fill-opacity="0.7"/>
<path d="M854.80 197.83Q852.42 197.83 851.02 196.44Q849.62 195.05 849.62 192.55L849.62 189.53Q849.62 187.01 851.01 185.63Q852.40 184.25 854.80 184.25Q857.20 184.25 858.59 185.63Q859.98 187.01 859.98 189.53L859.98 192.55Q859.98 195.05 858.58 196.44Q857.18 197.83 854.80 197.83M854.80 195.91Q856.22 195.91 857.02 195.12Q857.82 194.33 857.82 192.79L857.82 189.29Q857.82 187.75 857.02 186.96Q856.22 186.17 854.80 186.17Q853.41 186.17 852.59 186.96Q851.78 187.75 851.78 189.29L851.78 192.79Q851.78 194.33 852.59 195.12Q853.41 195.91 854.80 195.91" fill="white" fill-opacity="0.7"/>
<path d="M866.85 197.64L864.69 197.64L864.69 184.44L866.85 184.44L866.85 186.96L866.90 186.96Q867.06 185.69 867.98 184.94Q868.89 184.20 870.42 184.20Q872.49 184.20 873.60 185.44Q874.72 186.67 874.72 188.95L874.72 190.08L872.56 190.08L872.56 188.95Q872.56 186.07 869.75 186.07Q868.34 186.07 867.59 186.89Q866.85 187.70 866.85 189.24" fill="white" fill-opacity="0.7"/>
<path d="M898.53 197.83L897.47 197.83Q895.26 197.83 894.05 196.84Q892.84 195.84 892.84 194.02L895 194.02Q895 194.93 895.65 195.44Q896.30 195.96 897.47 195.96L898.53 195.96Q899.73 195.96 900.39 195.43Q901.05 194.90 901.05 193.94Q901.05 192.24 899.49 192.02L895.84 191.50Q894.50 191.30 893.75 190.38Q893.01 189.46 893.01 187.94Q893.01 186.22 894.20 185.23Q895.38 184.25 897.47 184.25L898.53 184.25Q900.45 184.25 901.66 185.20Q902.87 186.14 902.97 187.68L900.78 187.68Q900.74 186.98 900.12 186.53Q899.51 186.07 898.53 186.07L897.47 186.07Q896.37 186.07 895.74 186.58Q895.12 187.08 895.12 187.94Q895.12 189.34 896.39 189.53L899.80 190.01Q903.16 190.49 903.16 193.94Q903.16 195.79 901.95 196.81Q900.74 197.83 898.53 197.83" fill="white" fill-opacity="0.7"/>
<path d="M917.56 197.64L913.72 197.64Q912.09 197.64 911.10 196.69Q910.12 195.74 910.12 194.16L910.12 186.41L906.33 186.41L906.33 184.44L910.12 184.44L910.12 180.72L912.28 180.72L912.28 184.44L917.68 184.44L917.68 186.41L912.28 186.41L912.28 194.16Q912.28 194.83 912.68 195.25Q913.07 195.67 913.72 195.67L917.56 195.67" fill="white" fill-opacity="0.7"/>
<path d="M926.78 197.88Q924.50 197.88 923.13 196.52Q921.76 195.17 921.76 192.84L921.76 184.44L923.92 184.44L923.92 192.84Q923.92 194.28 924.69 195.13Q925.46 195.98 926.78 195.98Q928.12 195.98 928.90 195.13Q929.68 194.28 929.68 192.84L929.68 184.44L931.84 184.44L931.84 192.84Q931.84 195.17 930.45 196.52Q929.06 197.88 926.78 197.88" fill="white" fill-opacity="0.7"/>
<path d="M940.43 197.88Q938.46 197.88 937.28 196.56Q936.09 195.24 936.09 192.98L936.09 189.12Q936.09 186.84 937.26 185.52Q938.44 184.20 940.43 184.20Q941.92 184.20 942.89 184.94Q943.86 185.69 944.06 186.96L944.08 186.96L944.03 183.96L944.03 180.12L946.19 180.12L946.19 197.64L944.03 197.64L944.03 195.12L944.01 195.12Q943.84 196.42 942.88 197.15Q941.92 197.88 940.43 197.88M941.15 196.01Q942.50 196.01 943.26 195.17Q944.03 194.33 944.03 192.84L944.03 189.24Q944.03 187.75 943.26 186.91Q942.50 186.07 941.15 186.07Q939.78 186.07 939.02 186.78Q938.25 187.49 938.25 189.12L938.25 192.96Q938.25 194.57 939.02 195.29Q939.78 196.01 941.15 196.01" fill="white" fill-opacity="0.7"/>
<path d="M955.60 197.88Q953.27 197.88 951.84 196.48Q950.42 195.07 950.42 192.60L950.42 189.48Q950.42 187.01 951.84 185.60Q953.27 184.20 955.60 184.20Q957.16 184.20 958.32 184.82Q959.49 185.45 960.14 186.58Q960.78 187.70 960.78 189.24L960.78 191.59L952.53 191.59L952.53 192.84Q952.53 194.30 953.37 195.16Q954.21 196.01 955.60 196.01Q956.80 196.01 957.58 195.54Q958.36 195.07 958.53 194.28L960.69 194.28Q960.47 195.94 959.08 196.91Q957.69 197.88 955.60 197.88M952.53 189.24L952.53 189.91L958.67 189.91L958.67 189.24Q958.67 187.68 957.87 186.83Q957.06 185.98 955.60 185.98Q954.14 185.98 953.33 186.83Q952.53 187.68 952.53 189.24" fill="white" fill-opacity="0.7"/>
<path d="M967.17 197.64L965.01 197.64L965.01 184.44L967.17 184.44L967.17 186.96L967.19 186.96Q967.36 185.64 968.27 184.92Q969.18 184.20 970.70 184.20Q972.69 184.20 973.86 185.42Q975.04 186.65 975.04 188.76L975.04 197.64L972.88 197.64L972.88 189.14Q972.88 187.63 972.12 186.83Q971.37 186.02 970.07 186.02Q968.73 186.02 967.95 186.86Q967.17 187.70 967.17 189.24" fill="white" fill-opacity="0.7"/>
<path d="M989.56 197.64L985.72 197.64Q984.09 197.64 983.10 196.69Q982.12 195.74 982.12 194.16L982.12 186.41L978.33 186.41L978.33 184.44L982.12 184.44L982.12 180.72L984.28 180.72L984.28 184.44L989.68 184.44L989.68 186.41L984.28 186.41L984.28 194.16Q984.28 194.83 984.68 195.25Q985.07 195.67 985.72 195.67L989.56 195.67" fill="white" fill-opacity="0.7"/>
<path d="M1012.05 197.88Q1010.01 197.88 1008.81 196.74Q1007.61 195.60 1007.61 193.75Q1007.61 192.53 1008.16 191.62Q1008.71 190.70 1009.70 190.19Q1010.68 189.67 1011.95 189.67L1016.03 189.67L1016.03 188.64Q1016.03 186.07 1013.22 186.07Q1011.98 186.07 1011.21 186.53Q1010.44 186.98 1010.39 187.80L1008.23 187.80Q1008.35 186.24 1009.68 185.22Q1011.02 184.20 1013.22 184.20Q1015.62 184.20 1016.91 185.35Q1018.19 186.50 1018.19 188.57L1018.19 197.64L1016.06 197.64L1016.06 195.24L1016.01 195.24Q1015.82 196.46 1014.78 197.17Q1013.75 197.88 1012.05 197.88M1012.58 196.06Q1014.16 196.06 1015.10 195.29Q1016.03 194.52 1016.03 193.20L1016.03 191.35L1012.19 191.35Q1011.14 191.35 1010.48 191.99Q1009.82 192.62 1009.82 193.68Q1009.82 194.78 1010.55 195.42Q1011.28 196.06 1012.58 196.06" fill="white" fill-opacity="0.7"/>
<path d="M1027.79 197.88Q1025.39 197.88 1023.95 196.54Q1022.51 195.19 1022.51 192.84L1022.51 189.24Q1022.51 186.89 1023.95 185.54Q1025.39 184.20 1027.79 184.20Q1030.07 184.20 1031.48 185.42Q1032.88 186.65 1032.95 188.76L1030.79 188.76Q1030.72 187.49 1029.93 186.80Q1029.14 186.12 1027.79 186.12Q1026.38 186.12 1025.52 186.92Q1024.67 187.73 1024.67 189.22L1024.67 192.84Q1024.67 194.33 1025.52 195.14Q1026.38 195.96 1027.79 195.96Q1029.14 195.96 1029.93 195.26Q1030.72 194.57 1030.79 193.32L1032.95 193.32Q1032.88 195.43 1031.48 196.66Q1030.07 197.88 1027.79 197.88" fill="white" fill-opacity="0.7"/>
<path d="M1042.19 197.88Q1039.79 197.88 1038.35 196.54Q1036.91 195.19 1036.91 192.84L1036.91 189.24Q1036.91 186.89 1038.35 185.54Q1039.79 184.20 1042.19 184.20Q1044.47 184.20 1045.88 185.42Q1047.28 186.65 1047.35 188.76L1045.19 188.76Q1045.12 187.49 1044.33 186.80Q1043.54 186.12 1042.19 186.12Q1040.78 186.12 1039.92 186.92Q1039.07 187.73 1039.07 189.22L1039.07 192.84Q1039.07 194.33 1039.92 195.14Q1040.78 195.96 1042.19 195.96Q1043.54 195.96 1044.33 195.26Q1045.12 194.57 1045.19 193.32L1047.35 193.32Q1047.28 195.43 1045.88 196.66Q1044.47 197.88 1042.19 197.88" fill="white" fill-opacity="0.7"/>
<path d="M1056.40 197.83Q1054.02 197.83 1052.62 196.44Q1051.22 195.05 1051.22 192.55L1051.22 189.53Q1051.22 187.01 1052.61 185.63Q1054 184.25 1056.40 184.25Q1058.80 184.25 1060.19 185.63Q1061.58 187.01 1061.58 189.53L1061.58 192.55Q1061.58 195.05 1060.18 196.44Q1058.78 197.83 1056.40 197.83M1056.40 195.91Q1057.82 195.91 1058.62 195.12Q1059.42 194.33 1059.42 192.79L1059.42 189.29Q1059.42 187.75 1058.62 186.96Q1057.82 186.17 1056.40 186.17Q1055.01 186.17 1054.19 186.96Q1053.38 187.75 1053.38 189.29L1053.38 192.79Q1053.38 194.33 1054.19 195.12Q1055.01 195.91 1056.40 195.91" fill="white" fill-opacity="0.7"/>
<path d="M1070.78 197.88Q1068.50 197.88 1067.13 196.52Q1065.76 195.17 1065.76 192.84L1065.76 184.44L1067.92 184.44L1067.92 192.84Q1067.92 194.28 1068.69 195.13Q1069.46 195.98 1070.78 195.98Q1072.12 195.98 1072.90 195.13Q1073.68 194.28 1073.68 192.84L1073.68 184.44L1075.84 184.44L1075.84 192.84Q1075.84 195.17 1074.45 196.52Q1073.06 197.88 1070.78 197.88" fill="white" fill-opacity="0.7"/>
<path d="M1082.37 197.64L1080.21 197.64L1080.21 184.44L1082.37 184.44L1082.37 186.96L1082.39 186.96Q1082.56 185.64 1083.47 184.92Q1084.38 184.20 1085.90 184.20Q1087.89 184.20 1089.06 185.42Q1090.24 186.65 1090.24 188.76L1090.24 197.64L1088.08 197.64L1088.08 189.14Q1088.08 187.63 1087.32 186.83Q1086.57 186.02 1085.27 186.02Q1083.93 186.02 1083.15 186.86Q1082.37 187.70 1082.37 189.24" fill="white" fill-opacity="0.7"/>
<path d="M1104.76 197.64L1100.92 197.64Q1099.29 197.64 1098.30 196.69Q1097.32 195.74 1097.32 194.16L1097.32 186.41L1093.53 186.41L1093.53 184.44L1097.32 184.44L1097.32 180.72L1099.48 180.72L1099.48 184.44L1104.88 184.44L1104.88 186.41L1099.48 186.41L1099.48 194.16Q1099.48 194.83 1099.88 195.25Q1100.27 195.67 1100.92 195.67L1104.76 195.67" fill="white" fill-opacity="0.7"/>
<path d="M1114.53 197.83L1113.47 197.83Q1111.26 197.83 1110.05 196.84Q1108.84 195.84 1108.84 194.02L1111 194.02Q1111 194.93 1111.65 195.44Q1112.30 195.96 1113.47 195.96L1114.53 195.96Q1115.73 195.96 1116.39 195.43Q1117.05 194.90 1117.05 193.94Q1117.05 192.24 1115.49 192.02L1111.84 191.50Q1110.50 191.30 1109.75 190.38Q1109.01 189.46 1109.01 187.94Q1109.01 186.22 1110.20 185.23Q1111.38 184.25 1113.47 184.25L1114.53 184.25Q1116.45 184.25 1117.66 185.20Q1118.87 186.14 1118.97 187.68L1116.78 187.68Q1116.74 186.98 1116.12 186.53Q1115.51 186.07 1114.53 186.07L1113.47 186.07Q1112.37 186.07 1111.74 186.58Q1111.12 187.08 1111.12 187.94Q1111.12 189.34 1112.39 189.53L1115.80 190.01Q1119.16 190.49 1119.16 193.94Q1119.16 195.79 1117.95 196.81Q1116.74 197.83 1114.53 197.83" fill="white" fill-opacity="0.7"/>
<path d="M1128.40 197.88Q1127.51 197.88 1126.97 197.35Q1126.43 196.82 1126.43 195.98Q1126.43 195.10 1126.97 194.54Q1127.51 193.99 1128.40 193.99Q1129.29 193.99 1129.83 194.54Q1130.37 195.10 1130.37 195.98Q1130.37 196.82 1129.83 197.35Q1129.29 197.88 1128.40 197.88" fill="white" fill-opacity="0.7"/>
<path d="M76.11 136.06L66.42 136.06L84.56 65.98L97.14 65.98L115.18 136.06L105.49 136.06L101.07 117.82L80.53 117.82L76.11 136.06M87.54 88.92L82.45 109.95L99.15 109.95L94.16 89.02Q92.72 83.26 91.86 79.23Q90.99 75.20 90.80 73.76Q90.61 75.20 89.74 79.23Q88.88 83.26 87.54 88.92M137.55 136.06L128.05 136.06L128.05 65.98L150.80 65.98Q157.52 65.98 162.42 68.57Q167.31 71.16 170 75.82Q172.69 80.48 172.69 86.91Q172.69 93.24 170 97.90Q167.31 102.56 162.37 105.15Q157.42 107.74 150.80 107.74L137.55 107.74L137.55 136.06M137.55 74.43L137.55 99.29L150.80 99.29Q156.37 99.29 159.63 95.88Q162.90 92.48 162.90 86.91Q162.90 81.24 159.63 77.84Q156.37 74.43 150.80 74.43L137.55 74.43M225.10 136.06L186.90 136.06L186.90 127.42L201.20 127.42L201.20 74.62L186.90 74.62L186.90 65.98L225.10 65.98L225.10 74.62L210.80 74.62L210.80 127.42L225.10 127.42L225.10 136.06M263.98 137.02Q253.62 137.02 247.47 131.60Q241.33 126.17 241.33 116.67L250.83 116.67Q250.83 122.24 254.38 125.40Q257.94 128.57 263.98 128.57Q269.74 128.57 273.15 125.36Q276.56 122.14 276.56 116.76Q276.56 112.73 274.35 109.71Q272.14 106.68 268.11 105.63L257.74 102.84Q250.93 100.92 246.94 95.88Q242.96 90.84 242.96 83.93Q242.96 78.27 245.50 74Q248.05 69.72 252.66 67.37Q257.26 65.02 263.31 65.02Q269.46 65.02 274.11 67.37Q278.77 69.72 281.36 73.95Q283.95 78.17 283.95 83.74L274.54 83.74Q274.54 79.13 271.42 76.25Q268.30 73.37 263.31 73.37Q258.32 73.37 255.30 76.25Q252.27 79.13 252.27 83.74Q252.27 87.48 254.29 90.03Q256.30 92.57 259.95 93.63L270.61 96.51Q277.81 98.43 281.84 103.85Q285.87 109.28 285.87 116.76Q285.87 122.91 283.18 127.47Q280.50 132.03 275.55 134.52Q270.61 137.02 263.98 137.02M342.51 136.06L301.71 136.06L301.71 65.98L342.51 65.98L342.51 74.52L311.12 74.52L311.12 95.36L339.15 95.36L339.15 103.61L311.12 103.61L311.12 127.52L342.51 127.52L342.51 136.06M383.60 136.06L374.10 136.06L374.10 74.62L355.09 74.62L355.09 65.98L402.51 65.98L402.51 74.62L383.60 74.62L383.60 136.06M436.40 137.02Q426.51 137.02 421.18 131.55Q415.86 126.08 415.86 116.67L415.86 65.98L425.36 65.98L425.36 116.67Q425.36 122.24 428.10 125.40Q430.83 128.57 436.40 128.57Q441.87 128.57 444.70 125.40Q447.54 122.24 447.54 116.67L447.54 65.98L457.04 65.98L457.04 116.67Q457.04 126.17 451.71 131.60Q446.38 137.02 436.40 137.02M551.98 137.02Q542.29 137.02 536.58 131.60Q530.86 126.17 530.86 116.67L530.86 85.28Q530.86 75.87 536.58 70.44Q542.29 65.02 551.98 65.02Q561.58 65.02 567.30 70.49Q573.01 75.96 573.01 85.28L563.50 85.28Q563.50 79.61 560.43 76.54Q557.36 73.47 551.98 73.47Q546.51 73.47 543.44 76.54Q540.37 79.61 540.37 85.28L540.37 116.67Q540.37 122.43 543.44 125.50Q546.51 128.57 551.98 128.57Q557.36 128.57 560.43 125.50Q563.50 122.43 563.50 116.67L563.50 107.55L549.87 107.55L549.87 99.10L573.01 99.10L573.01 116.67Q573.01 126.08 567.30 131.55Q561.58 137.02 551.98 137.02M609.20 137.02Q599.60 137.02 594.03 131.45Q588.46 125.88 588.46 115.71L588.46 86.24Q588.46 76.16 594.03 70.59Q599.60 65.02 609.20 65.02Q618.80 65.02 624.37 70.54Q629.94 76.06 629.94 86.24L629.94 115.71Q629.94 125.88 624.37 131.45Q618.80 137.02 609.20 137.02M609.20 128.57Q614.58 128.57 617.50 125.50Q620.43 122.43 620.43 116.67L620.43 85.28Q620.43 79.61 617.55 76.54Q614.67 73.47 609.20 73.47Q603.73 73.47 600.85 76.54Q597.97 79.61 597.97 85.28L597.97 116.67Q597.97 122.43 600.90 125.50Q603.82 128.57 609.20 128.57M673.14 136.06L660.37 136.06L642.42 65.98L652.21 65.98L663.82 113.21Q664.98 117.72 665.79 121.90Q666.61 126.08 666.99 128.28Q667.28 126.08 668.19 121.85Q669.10 117.63 670.16 113.12L681.39 65.98L691.18 65.98L673.14 136.06M779.12 137.02Q768.85 137.02 762.99 131.31Q757.14 125.60 757.14 115.71L766.64 115.71Q766.64 121.85 769.95 125.21Q773.26 128.57 779.12 128.57Q784.98 128.57 788.29 125.21Q791.60 121.85 791.60 115.80L791.60 65.98L801.10 65.98L801.10 115.80Q801.10 125.60 795.20 131.31Q789.30 137.02 779.12 137.02M839.60 137.02Q829.71 137.02 824.38 131.55Q819.06 126.08 819.06 116.67L819.06 65.98L828.56 65.98L828.56 116.67Q828.56 122.24 831.30 125.40Q834.03 128.57 839.60 128.57Q845.07 128.57 847.90 125.40Q850.74 122.24 850.74 116.67L850.74 65.98L860.24 65.98L860.24 116.67Q860.24 126.17 854.91 131.60Q849.58 137.02 839.60 137.02M916.30 136.06L878.10 136.06L878.10 127.42L892.40 127.42L892.40 74.62L878.10 74.62L878.10 65.98L916.30 65.98L916.30 74.62LNaN 74.62LNaN 127.42L916.30 127.42L916.30 136.06M959.60 136.06L950.10 136.06L950.10 74.62L931.09 74.62L931.09 65.98L978.51 65.98L978.51 74.62L959.60 74.62" fill="url(#paint2_linear_0_1)"/>
<g id="Group 1">
<rect id="Rectangle 1" x="26" y="168" width="12" height="184" rx="5" fill="url(#paint3_linear_0_1)" fill-opacity="0.9"/>
</g>
<g id="Group 1_2">
<rect id="Rectangle 2" x="26" y="38" width="12" height="119" rx="5" fill="url(#paint4_linear_0_1)" fill-opacity="0.9"/>
</g>
<ellipse id="Ellipse 1" cx="148.5" cy="573" rx="215.5" ry="214" fill="url(#paint5_linear_0_1)" fill-opacity="0.4"/>
<rect id="Rectangle 3" x="1229" y="48" width="300" height="300" rx="25" fill="#FFFBFB" fill-opacity="0.9"/>
<g id="placeholder-logo"><g transform="translate(1229,48) translate(0.0,60.0) scale(1.2000)"><g fill="#666666">
  <path d="m88.05,27.65c-3.15,4 -3.2,51.2 -0.05,54.35c2.75,2.75 71.7,3.15 74.45,0.45c2.85,-2.9 2.3,-53.85 -0.65,-55.9c-1.95,-1.35 -7.15,-1.55 -36.95,-1.55l-34.7,0l-2.1,2.65zm69.45,3.35c0.65,0 1,8.6 1,23.75l0,23.75l-33,0l-33,0l-0.25,-23c-0.15,-12.6 -0.1,-23.45 0.15,-24.1c0.35,-0.85 8.9,-1.05 32.25,-0.75c17.55,0.2 32.3,0.35 32.85,0.35z"/>
  <path d="m99.15,37.3c-6.85,7.35 4.25,17.35 11.4,10.25c1.35,-1.35 2.45,-3.65 2.45,-5.05c0,-6.45 -9.35,-9.95 -13.85,-5.2z"/>
  <path d="m135,42.5c-0.7,0.85 -5.25,5.15 -10.1,9.6l-8.85,8.1l-3.2,-3.2l-3.15,-3.15l-6.35,6.3c-5.55,5.5 -6.35,6.75 -6.35,10.05l0,3.8l28.5,0l28.5,0l0,-8.6l0,-8.55l-8.15,-7.7c-9.35,-8.85 -9.15,-8.7 -10.85,-6.65zm7.25,15.2c0.95,0.9 1.75,2.9 1.75,4.45c6.35,-5.05 4.75,-7.15 4.9,-11.55c0.95,0 0,0 0,0l-6.65,7.1z"/>
  <path d="m53.65,110.75c0.1,4.8 0.45,8.65 0.75,8.5c0.35,-0.15 1.3,-0.25 2.1,-0.25c1.1,0 1.5,-1.2 1.5,-4.75l0,-4.75l3.25,5c4.9,7.5 6.2,6.75 6.55,-3.75c0.25,-8.15 0.15,-8.75 -1.7,-8.75c-1.65,0 -2.05,0.8 -2.3,4.75l-0.3,4.75l-2.8,-4.75c-4.85,-8.25 -7.25,-6.9 -7.05,4z"/>
  <path d="m91,108.9c0,9.65 0.3,10.1 6.1,10.1c5.8,0 7.15,-2.65 1.65,-3.2l-3.25,-0.3l-0.3,-6.75c-0.25,-5.95 -0.55,-6.75 -2.25,-6.75c-1.75,0 -1.95,0.7 -1.95,6.9z"/>
  <path d="m151,102.45c0,0.25 1,2.15 2.25,4.2c1.2,2.1 2.45,5.8 2.75,8.25c0.65,5.9 4,6.95 4,1.25c0.05,-2.1 1.25,-5.85 2.95,-8.9l2.9,-5.25l-2.5,0c-1.8,0 -2.8,0.85 -3.75,3.1l-1.3,3.05l-1.25,-3.05c-1.1,-2.6 -6.05,-4.8 -6.05,-2.65z"/>
  <path d="m191,107.45c0,9.05 3.4,8.85 4.25,-0.2c0.45,-5 0.35,-5.25 -1.9,-5.25c-2.2,0 -2.35,0.4 -2.35,5.45z"/>
  <path d="m180.8,104.75c-1.3,5.35 0.65,13.6 3.45,14.35c2.3,0.6 2.75,0.4 2.75,-1.2c0,-1.05 -0.45,-1.9 -1,-1.9c-0.55,0 -1,-1.6 -1,-3.5c0,-1.95 0.45,-3.5 1,-3.5c0.55,0 1,-0.7 1,-1.5c0,-0.85 -0.45,-1.5 -1,-1.5c-0.55,0 -1,-0.7 -1,-1.5c0,-2.1 -3.65,-1.9 -4.2,0.25z"/>
  <path d="m71.55,106.55c-2.2,2.25 -2.05,9.7 0.3,11.8c4.5,4.1 10.15,0.75 10.15,-6.1c0,-4.85 -2,-7.25 -6,-7.25c-1.55,0 -3.55,0.7 -4.45,1.55zm6.25,5.8c0.25,3.05 0,3.65 -1.6,3.65c-2.3,0 -3.25,-2.65 -2.05,-5.85c1.25,-3.35 3.3,-2.1 3.65,2.2z"/>
  <path d="m105.75,106.1c-2.5,1.45 -2.45,9.95 0.1,12.25c4.3,3.9 10.15,0.35 10.15,-6.2c0,-6 -5.15,-9.05 -10.25,-6.05zm6.05,6.25c0.25,3.05 0,3.65 -1.6,3.65c-2.3,0 -3.25,-2.65 -2.05,-5.85c1.25,-3.35 3.3,-2.1 3.65,2.2z"/>
  <path d="m119.2,106.2c-3.8,3.8 -0.4,12.55 4.4,11.35c1.9,-0.45 2.45,-0.3 2.15,0.65c-0.25,0.7 -1.55,1.2 -2.85,1.1c-4.05,-0.3 -5.35,0.45 -3.85,2.25c0.85,1.05 2.6,1.45 5.35,1.25l4.1,-0.3l0.3,-8.75l0.3,-8.75l-4.35,0c-2.4,0 -4.9,0.55 -5.55,1.2zm6.6,4.45c0.4,2.85 -2.15,4.85 -3.75,2.95c-0.9,-1.1 -0.9,-2 -0.05,-3.6c1.35,-2.5 3.4,-2.15 3.8,0.65z"/>
  <path d="m133.55,106.55c-2.2,2.25 -2.05,9.7 0.3,11.8c4.5,4.1 10.15,0.75 10.15,-6.1c0,-4.85 -2,-7.25 -6,-7.25c-1.55,0 -3.55,0.7 -4.45,1.55zm6.25,5.8c0.25,3.05 0,3.65 -1.6,3.65c-2.3,0 -3.25,-2.65 -2.05,-5.85c1.25,-3.35 3.3,-2.1 3.65,2.2z"/>
  <path d="m167.65,106.85c-3.9,4.3 -0.75,13.15 4.7,13.15c2.4,0 5.65,-2.75 5.65,-4.85c0,-1.4 -2.65,-1.55 -3.5,-0.15c-0.95,1.55 -4.5,1.15 -4.5,-0.5c0,-1.1 1.1,-1.5 4,-1.5c3.15,0 4,-0.35 4,-1.8c0,-5.3 -6.85,-8.25 -10.35,-4.35z"/>
  <path d="m191,117.5c0,2.15 0.4,2.6 2.25,2.3c1.5,-0.2 2.25,-1 2.25,-2.3c0,-1.3 -0.75,-2.1 -2.25,-2.3c-1.85,-0.3 -2.25,0.15 -2.25,2.3z"/>
 </g></g></g>
</g>
<defs>
<linearGradient id="paint0_linear_0_1" x1="0" y1="198" x2="1584" y2="198" gradientUnits="userSpaceOnUse">
<stop stop-color="#3D052C"/>
<stop offset="1"/>
</linearGradient>
<linearGradient id="paint1_linear_0_1" x1="323" y1="-224" x2="323" y2="352" gradientUnits="userSpaceOnUse">
<stop stop-color="#28F6F2" stop-opacity="0.4"/>
<stop offset="1" stop-color="#17908E" stop-opacity="0.7"/>
</linearGradient>
<linearGradient id="paint2_linear_0_1" x1="148.5" y1="38" x2="148.5" y2="140" gradientUnits="userSpaceOnUse">
<stop stop-color="white"/>
<stop offset="1" stop-color="#999999"/>
</linearGradient>
<linearGradient id="paint3_linear_0_1" x1="38" y1="260" x2="26" y2="260" gradientUnits="userSpaceOnUse">
<stop stop-color="#D9D9D9"/>
<stop offset="1" stop-color="#737373"/>
</linearGradient>
<linearGradient id="paint4_linear_0_1" x1="38" y1="97.5" x2="26" y2="97.5" gradientUnits="userSpaceOnUse">
<stop stop-color="#D9D9D9"/>
<stop offset="1" stop-color="#737373"/>
</linearGradient>
<linearGradient id="paint5_linear_0_1" x1="27.5" y1="434.5" x2="148.5" y2="787" gradientUnits="userSpaceOnUse">
<stop stop-color="#2E21BC"/>
<stop offset="1" stop-color="#150F56"/>
</linearGradient>
<clipPath id="clip0_0_1">
<rect width="1584" height="396" fill="white"/>
</clipPath>
</defs>
</svg>
